{"title":"Cloud Atlas 2012 RC BDRip STUDIO AUDIO XVID AC3-5 1 HQ Hive-CM8","uid":7943284,"size":2412832192,"categoryP":"video","categoryS":"movies","magnet":"?xt=urn:btih:439f4c681c943b9d94bce180fc64ca3f41198f07&amp;dn=Cloud+Atlas+2012+RC+BDRip+STUDIO+AUDIO+XVID+AC3-5+1+HQ+Hive-CM8&amp;tr=udp%3A%2F%2Ftracker.openbittorrent.com%3A80&amp;tr=udp%3A%2F%2Fopen.demonii.com%3A1337&amp;tr=udp%3A%2F%2Ftracker.coppersurfer.tk%3A6969&amp;tr=udp%3A%2F%2Fexodus.desync.com%3A6969","seeders":2,"leechers":0,"uploader":"juggs99","files":4,"time":1356053017,"description":"Cloud.Atlas.2012.RC.BDRip.STUDIO.AUDIO.XVID.AC3-5.1.HQ.Hive-CM8\n\n\n\nVideo.: 720x304 @bitrate 1400 2pass\nAudio.: English AC3 5.1 @448\nSample: Yes, included\n\n\nIMDb..: http://www.imdb.com/title/tt1371111/\n\n\nSOURCES\nVideo: Russian Bluray - Cloud Atlas (2012) Blu-ray 1080p AVC DTS-HD 5.1\nAudio: Studio Audio - special thanks to AKS74u &amp; Batjoker; plus tek, elvis &amp; BV - thx\n.....: +Russian Audio Effects\n\n\nENCODE\nThe russian Bluray had great quality, just didnt have english audio on it.\nGot that nice Stereo Studio audio cpl hrs before and decided to make a really nice\nversion out of it. Just muxing it to any avi around would have done the trick and\ncould have been first with it, but that would be lame. So, i went the extra mile\non it to get you a perfect copy. I cleaned the russian audio track from russian\nvoice which was a pita, loads of talking in the channels. finally after 5h all\nwas done, and i entered the studio audio back into the russian track.\n\nSounds now really nice and almost retailish,\nwill do me till retail around march 2013\nEnjoy\n\n\nGeneral\nComplete name                  : Cloud.Atlas.2012.RC.BDRip.STUDIO.AUDIO.XVID.AC3-5.1.HQ.Hive-CM8.avi\nFormat                         : AVI\nFormat/Info                    : Audio Video Interleave\nFormat profile                 : OpenDML\nFormat settings                : rec\nFile size                      : 2.23 GiB\nDuration                       : 2h 52mn\nOverall bit rate               : 1 853 Kbps\nWriting application            : AVI-Mux GUI 1.17.7, Aug  8 2006  20:59:17\n\nVideo\nID                             : 0\nFormat                         : MPEG-4 Visual\nFormat profile                 : Advanced Simple@L5\nFormat settings, BVOP          : 2\nFormat settings, QPel          : Yes\nFormat settings, GMC           : No warppoints\nFormat settings, Matrix        : Default (H.263)\nMuxing mode                    : Packed bitstream\nCodec ID                       : XVID\nCodec ID/Hint                  : XviD\nDuration                       : 2h 52mn\nBit rate                       : 1 400 Kbps\nWidth                          : 720 pixels\nHeight                         : 304 pixels\nDisplay aspect ratio           : 2.35:1\nFrame rate                     : 23.976 fps\nColor space                    : YUV\nChroma subsampling             : 4:2:0\nBit depth                      : 8 bits\nScan type                      : Progressive\nCompression mode               : Lossy\nBits/(Pixel*Frame)             : 0.267\nStream size                    : 1.68 GiB (76%)\nWriting library                : XviD 1.2.1 (UTC 2008-12-04)\n\nAudio\nID                             : 1\nFormat                         : AC-3\nFormat/Info                    : Audio Coding 3\nMode extension                 : CM (complete main)\nFormat settings, Endianness    : Big\nCodec ID                       : 2000\nDuration                       : 2h 52mn\nBit rate mode                  : Constant\nBit rate                       : 448 Kbps\nChannel(s)                     : 6 channels\nChannel positions              : Front: L C R, Side: L R, LFE\nSampling rate                  : 48.0 KHz\nBit depth                      : 16 bits\nCompression mode               : Lossy\nStream size                    : 552 MiB (24%)\nAlignment                      : Aligned on interleaves\nInterleave, duration           : 64 ms (1.53 video frames)\nInterleave, preload duration   : 192 ms\n\n\nPLOT\nAn exploration of how the actions of individual lives impact one another in the\npast, present and future, as one soul is shaped from a killer into a hero, and\nan act of kindness ripples across centuries to inspire a revolution.\n\n\n &lt;a href=&quot;\nhttp://img198.imageshack.us/img198/50/cacacacacacai.png&quot; rel=&quot;nofollow&quot; target=&quot;_NEW&quot;&gt;\nhttp://img198.imageshack.us/img198/50/cacacacacacai.png&lt;/a&gt; &lt;a href=&quot;\nhttp://img832.imageshack.us/img832/6744/cacacacacacacaa.png&quot; rel=&quot;nofollow&quot; target=&quot;_NEW&quot;&gt;\nhttp://img832.imageshack.us/img832/6744/cacacacacacacaa.png&lt;/a&gt; &lt;a href=&quot;\nhttp://img405.imageshack.us/img405/1505/cacaxc.png&quot; rel=&quot;nofollow&quot; target=&quot;_NEW&quot;&gt;\nhttp://img405.imageshack.us/img405/1505/cacaxc.png&lt;/a&gt;","torrent":{"xt":"urn:btih:439f4c681c943b9d94bce180fc64ca3f41198f07","amp;dn":"Cloud+Atlas+2012+RC+BDRip+STUDIO+AUDIO+XVID+AC3-5+1+HQ+Hive-CM8","amp;tr":["udp%3A%2F%2Ftracker.openbittorrent.com%3A80","udp%3A%2F%2Fopen.demonii.com%3A1337","udp%3A%2F%2Ftracker.coppersurfer.tk%3A6969","udp%3A%2F%2Fexodus.desync.com%3A6969"],"infoHash":"439f4c681c943b9d94bce180fc64ca3f41198f07","infoHashBuffer":{"type":"Buffer","data":[67,159,76,104,28,148,59,157,148,188,225,128,252,100,202,63,65,25,143,7]},"announce":[],"urlList":[]}}